<?xml version="1.0" standalone="no"?>
<!DOCTYPE svg PUBLIC "-//W3C//DTD SVG 20010904//EN"
 "http://www.w3.org/TR/2001/REC-SVG-20010904/DTD/svg10.dtd">
<svg version="1.0" xmlns="http://www.w3.org/2000/svg"
 width="261.000000pt" height="261.000000pt" viewBox="0 0 261.000000 261.000000"
 preserveAspectRatio="xMidYMid meet">
<metadata>
Created by potrace 1.14, written by Peter Selinger 2001-2017
</metadata>
<g transform="translate(0.000000,261.000000) scale(0.100000,-0.100000)"
fill="#000000" stroke="none">
<path d="M273 2586 c-103 -33 -194 -114 -241 -214 l-27 -57 -3 -984 c-3 -1073
-4 -1048 54 -1147 48 -81 146 -151 244 -173 23 -5 458 -9 1004 -9 1070 0 1023
-3 1126 67 71 47 126 120 151 201 19 64 19 89 17 1055 l-3 990 -32 66 c-39 80
-111 150 -191 187 l-57 27 -1000 2 c-808 2 -1008 -1 -1042 -11z"/>
</g>
</svg>
