<?xml version="1.0" standalone="no"?>
<!DOCTYPE svg PUBLIC "-//W3C//DTD SVG 20010904//EN"
 "http://www.w3.org/TR/2001/REC-SVG-20010904/DTD/svg10.dtd">
<svg version="1.0" xmlns="http://www.w3.org/2000/svg"
 width="260.000000pt" height="260.000000pt" viewBox="0 0 260.000000 260.000000"
 preserveAspectRatio="xMidYMid meet">
<metadata>
Created by potrace 1.14, written by Peter Selinger 2001-2017
</metadata>
<g transform="translate(0.000000,260.000000) scale(0.100000,-0.100000)"
fill="#000000" stroke="none">
<path d="M273 2505 c-103 -32 -194 -113 -241 -213 l-27 -57 0 -960 0 -960 23
-57 c33 -81 108 -160 190 -200 l67 -33 1010 0 1010 0 57 23 c67 27 148 97 184
158 55 93 54 75 54 1064 0 961 0 964 -44 1049 -23 44 -92 118 -137 147 -88 55
-59 54 -1123 53 -782 0 -990 -3 -1023 -14z m1057 -610 l0 -195 125 0 125 0 0
-120 0 -120 -125 0 -126 0 3 -324 3 -324 24 -26 c36 -38 92 -43 179 -14 l72
25 11 -41 c5 -23 19 -74 30 -114 11 -41 18 -79 16 -86 -6 -15 -141 -61 -224
-77 -147 -27 -297 9 -363 89 -57 69 -60 97 -60 514 l0 378 -80 0 -80 0 0 120
0 120 80 0 80 0 0 195 0 195 155 0 155 0 0 -195z m750 -1240 l0 -165 -125 0
-125 0 0 165 0 165 125 0 125 0 0 -165z"/>
</g>
</svg>
